<svg width="62" height="62" viewBox="0 0 62 62" fill="none" xmlns="http://www.w3.org/2000/svg">
<g clip-path="url(#clip0_605_78)">
<path d="M5.16669 25.8333C5.16669 47.7684 28.7422 61.1165 29.7445 61.6745C30.1285 61.888 30.5606 62.0001 31 62.0001C31.4394 62.0001 31.8715 61.888 32.2555 61.6745C33.2579 61.1165 56.8334 47.7684 56.8334 25.8333C56.8334 18.9819 54.1116 12.4111 49.2669 7.56641C44.4223 2.72172 37.8514 0 31 0C24.1486 0 17.5778 2.72172 12.7331 7.56641C7.88841 12.4111 5.16669 18.9819 5.16669 25.8333ZM31 5.16667C36.4793 5.17282 41.7323 7.35217 45.6068 11.2266C49.4812 15.101 51.6605 20.3541 51.6667 25.8333C51.6667 42.0412 35.65 53.4233 31 56.3942C26.35 53.4233 10.3334 42.0412 10.3334 25.8333C10.3395 20.3541 12.5189 15.101 16.3933 11.2266C20.2677 7.35217 25.5208 5.17282 31 5.16667Z" fill="#606D86"/>
<path d="M31 38.75C33.5547 38.75 36.052 37.9924 38.1761 36.5731C40.3002 35.1538 41.9558 33.1365 42.9334 30.7763C43.9111 28.4161 44.1668 25.819 43.6685 23.3134C43.1701 20.8078 41.9399 18.5063 40.1334 16.6998C38.327 14.8934 36.0255 13.6632 33.5199 13.1648C31.0143 12.6664 28.4172 12.9222 26.057 13.8999C23.6968 14.8775 21.6795 16.533 20.2602 18.6572C18.8409 20.7813 18.0833 23.2786 18.0833 25.8333C18.0874 29.2578 19.4496 32.5408 21.871 34.9622C24.2925 37.3837 27.5755 38.7459 31 38.75ZM31 18.0833C32.5328 18.0833 34.0312 18.5378 35.3056 19.3894C36.5801 20.241 37.5735 21.4514 38.16 22.8675C38.7466 24.2836 38.9001 25.8419 38.6011 27.3452C38.302 28.8486 37.5639 30.2295 36.4801 31.3134C35.3962 32.3972 34.0153 33.1353 32.5119 33.4344C31.0086 33.7334 29.4503 33.5799 28.0342 32.9934C26.6181 32.4068 25.4077 31.4134 24.5561 30.139C23.7045 28.8645 23.25 27.3661 23.25 25.8333C23.25 23.7779 24.0665 21.8066 25.5199 20.3532C26.9733 18.8998 28.9446 18.0833 31 18.0833Z" fill="#606D86"/>
</g>
<defs>
<clipPath id="clip0_605_78">
<rect width="62" height="62" fill="white"/>
</clipPath>
</defs>
</svg>
