<svg width="62" height="62" viewBox="0 0 62 62" fill="none" xmlns="http://www.w3.org/2000/svg">
<path d="M31 62C13.8787 62 0 48.1213 0 31C0 13.8787 13.8787 0 31 0C48.1213 0 62 13.8787 62 31C62 48.1213 48.1213 62 31 62ZM31 55.8C37.5774 55.8 43.8853 53.1871 48.5362 48.5362C53.1871 43.8853 55.8 37.5774 55.8 31C55.8 24.4226 53.1871 18.1147 48.5362 13.4638C43.8853 8.81285 37.5774 6.2 31 6.2C24.4226 6.2 18.1147 8.81285 13.4638 13.4638C8.81285 18.1147 6.2 24.4226 6.2 31C6.2 37.5774 8.81285 43.8853 13.4638 48.5362C18.1147 53.1871 24.4226 55.8 31 55.8ZM34.1 37.2C34.0995 39.1449 33.5762 41.0539 32.5849 42.7273C31.5936 44.4006 30.1707 45.7767 28.4652 46.7116C26.7597 47.6464 24.8343 48.1057 22.8905 48.0412C20.9466 47.9768 19.0558 47.391 17.416 46.3452C15.7762 45.2994 14.4476 43.8321 13.5693 42.0968C12.691 40.3615 12.2953 38.422 12.4236 36.4813C12.552 34.5406 13.1996 32.6701 14.2987 31.0655C15.3978 29.461 16.908 28.1814 18.6713 27.3606C19.0403 27.1886 19.4396 27.091 19.8464 27.0733C20.2532 27.0556 20.6594 27.1182 21.042 27.2575C21.4246 27.3969 21.7759 27.6102 22.0761 27.8853C22.3762 28.1604 22.6192 28.492 22.7912 28.861C22.9632 29.23 23.0608 29.6293 23.0785 30.0361C23.0962 30.4429 23.0336 30.8491 22.8943 31.2317C22.7549 31.6143 22.5416 31.9656 22.2665 32.2658C21.9914 32.5659 21.6598 32.8089 21.2908 32.9809C20.5348 33.3321 19.887 33.8802 19.4155 34.5676C18.9439 35.2551 18.6658 36.0567 18.6103 36.8885C18.5548 37.7203 18.724 38.5517 19.1 39.2957C19.4761 40.0397 20.0453 40.6689 20.7479 41.1175C21.4506 41.566 22.261 41.8175 23.0941 41.8454C23.9273 41.8733 24.7527 41.6768 25.4838 41.2763C26.215 40.8758 26.825 40.2861 27.2501 39.569C27.6752 38.8519 27.8996 38.0336 27.9 37.2V24.8C27.9005 22.8551 28.4238 20.9461 29.4151 19.2727C30.4064 17.5994 31.8293 16.2233 33.5348 15.2884C35.2403 14.3536 37.1657 13.8943 39.1095 13.9588C41.0534 14.0232 42.9442 14.609 44.584 15.6548C46.2238 16.7006 47.5524 18.1679 48.4307 19.9032C49.309 21.6385 49.7047 23.578 49.5764 25.5187C49.448 27.4594 48.8004 29.3299 47.7013 30.9345C46.6022 32.539 45.092 33.8186 43.3287 34.6394C42.9597 34.8114 42.5604 34.909 42.1536 34.9267C41.7468 34.9444 41.3406 34.8818 40.958 34.7425C40.5754 34.6031 40.2241 34.3898 39.9239 34.1147C39.6238 33.8396 39.3808 33.508 39.2088 33.139C38.8614 32.3937 38.8244 31.5409 39.1057 30.7683C39.3871 29.9957 39.9639 29.3665 40.7092 29.0191C41.4652 28.6679 42.1129 28.1198 42.5845 27.4324C43.0561 26.7449 43.3342 25.9433 43.3897 25.1115C43.4452 24.2797 43.276 23.4483 42.9 22.7043C42.5239 21.9603 41.9547 21.3311 41.2521 20.8825C40.5494 20.434 39.739 20.1825 38.9059 20.1546C38.0727 20.1267 37.2473 20.3232 36.5162 20.7237C35.785 21.1242 35.175 21.7139 34.7499 22.431C34.3248 23.1481 34.1004 23.9664 34.1 24.8V37.2Z" fill="#606D86"/>
</svg>
