<svg width="62" height="62" viewBox="0 0 62 62" fill="none" xmlns="http://www.w3.org/2000/svg">
<g clip-path="url(#clip0_605_61)">
<path d="M31 0C13.8773 0 0 13.8773 0 31C0 48.1227 13.8773 62 31 62C48.1227 62 62 48.1227 62 31C62 13.8773 48.1227 0 31 0ZM31 56.1875C17.1105 56.1875 5.8125 44.8882 5.8125 31C5.8125 17.1118 17.1105 5.8125 31 5.8125C44.8895 5.8125 56.1875 17.1118 56.1875 31C56.1875 44.8882 44.8895 56.1875 31 56.1875ZM31 40.6875C28.8203 40.6875 27.125 42.3828 27.125 44.5625C27.125 46.7422 28.7113 48.4375 31 48.4375C33.0707 48.4375 34.875 46.7422 34.875 44.5625C34.875 42.3828 33.0707 40.6875 31 40.6875ZM35.0082 15.5H28.8203C24.0977 15.5 20.3438 19.2539 20.3438 23.9766C20.3438 25.5508 21.6758 26.8828 23.25 26.8828C24.8242 26.8828 26.1562 25.5508 26.1562 23.9766C26.1562 22.5234 27.2582 21.3125 28.7113 21.3125H34.8992C36.4613 21.3125 37.7812 22.5234 37.7812 23.9766C37.7812 24.9453 37.2969 25.684 36.4492 26.1684L29.5469 30.3945C28.5781 31 28.0938 31.9688 28.0938 32.9375V34.875C28.0938 36.4492 29.4258 37.7812 31 37.7812C32.5742 37.7812 33.9062 36.4492 33.9062 34.875V34.6328L39.3676 31.2422C41.9105 29.668 43.4848 26.8828 43.4848 23.9766C43.5938 19.2539 39.8398 15.5 35.0082 15.5Z" fill="#606D86"/>
</g>
<defs>
<clipPath id="clip0_605_61">
<rect width="62" height="62" fill="white"/>
</clipPath>
</defs>
</svg>
