<svg width="62" height="62" viewBox="0 0 62 62" fill="none" xmlns="http://www.w3.org/2000/svg">
<g clip-path="url(#clip0_605_74)">
<path d="M31 0C24.8688 0 18.8753 1.81812 13.7773 5.22444C8.67941 8.63077 4.70606 13.4723 2.35975 19.1368C0.0134319 24.8013 -0.600472 31.0344 0.59567 37.0478C1.79181 43.0612 4.74428 48.5849 9.0797 52.9203C13.4151 57.2557 18.9388 60.2082 24.9522 61.4043C30.9656 62.6005 37.1987 61.9866 42.8632 59.6403C48.5277 57.294 53.3692 53.3206 56.7756 48.2227C60.1819 43.1248 62 37.1312 62 31C61.9911 22.781 58.7222 14.9012 52.9105 9.08951C47.0988 3.27781 39.219 0.00888946 31 0ZM31 56.8333C25.8907 56.8333 20.8961 55.3182 16.6478 52.4796C12.3995 49.641 9.08839 45.6064 7.13313 40.886C5.17786 36.1656 4.66628 30.9713 5.66306 25.9602C6.65985 20.949 9.12023 16.3459 12.7331 12.7331C16.3459 9.12022 20.949 6.65983 25.9602 5.66305C30.9714 4.66626 36.1656 5.17785 40.886 7.13311C45.6064 9.08838 49.641 12.3995 52.4796 16.6478C55.3182 20.896 56.8333 25.8907 56.8333 31C56.8258 37.8491 54.1017 44.4156 49.2586 49.2586C44.4156 54.1017 37.8491 56.8258 31 56.8333Z" fill="#606D86"/>
<path d="M42.0902 21.4235L25.8333 37.6805L19.9097 31.7569C19.4225 31.2863 18.77 31.0259 18.0926 31.0318C17.4153 31.0377 16.7674 31.3094 16.2884 31.7883C15.8094 32.2673 15.5377 32.9152 15.5318 33.5926C15.526 34.2699 15.7863 34.9225 16.2569 35.4097L24.0069 43.1597C24.4914 43.644 25.1483 43.9161 25.8333 43.9161C26.5183 43.9161 27.1753 43.644 27.6597 43.1597L45.7431 25.0764C46.2137 24.5891 46.474 23.9366 46.4682 23.2593C46.4623 22.5819 46.1906 21.934 45.7116 21.455C45.2326 20.976 44.5847 20.7043 43.9074 20.6985C43.23 20.6926 42.5775 20.953 42.0902 21.4235Z" fill="#606D86"/>
</g>
<defs>
<clipPath id="clip0_605_74">
<rect width="62" height="62" fill="white"/>
</clipPath>
</defs>
</svg>
