<svg width="59" height="65" viewBox="0 0 59 65" fill="none" xmlns="http://www.w3.org/2000/svg">
<path fill-rule="evenodd" clip-rule="evenodd" d="M29.1667 0C30.5473 0 31.6667 1.1193 31.6667 2.5V62.5C31.6667 63.8807 30.5473 65 29.1667 65C27.786 65 26.6667 63.8807 26.6667 62.5V60.5627C24.2873 60.426 21.9167 60.0947 19.581 59.568C10.4679 57.513 3.28229 50.653 1.11682 41.7787C-0.372275 35.676 -0.372275 29.3237 1.11682 23.2213C3.28229 14.347 10.4679 7.4868 19.581 5.43193C21.9167 4.90523 24.2873 4.57373 26.6667 4.43727V2.5C26.6667 1.1193 27.786 0 29.1667 0ZM26.6667 9.44657C24.656 9.57687 22.654 9.8645 20.6808 10.3095C13.3351 11.9658 7.66953 17.4593 5.97429 24.4066C4.67523 29.7303 4.67523 35.2697 5.97429 40.5933C7.66953 47.5407 13.3351 53.034 20.6808 54.6903C22.654 55.1353 24.656 55.423 26.6667 55.5533V9.44657ZM35.7637 7.32077C36.0673 5.97387 37.4053 5.1282 38.7523 5.43193C47.8653 7.4868 55.051 14.347 57.2167 23.2213C58.7057 29.3237 58.7057 35.676 57.2167 41.7787C55.051 50.653 47.8653 57.513 38.7523 59.568C37.4053 59.8717 36.0673 59.026 35.7637 57.679C35.46 56.332 36.3057 54.994 37.6527 54.6903C44.9983 53.034 50.6637 47.5403 52.359 40.5933C53.658 35.2693 53.658 29.7303 52.359 24.4066C50.6637 17.4593 44.9983 11.9658 37.6527 10.3095C36.3057 10.0057 35.46 8.66767 35.7637 7.32077Z" fill="#606D86"/>
</svg>
