<svg width="64" height="52" viewBox="0 0 64 52" fill="none" xmlns="http://www.w3.org/2000/svg">
<path d="M20.4046 20.1608C21.2695 19.129 21.1818 17.5488 20.2088 16.6315C19.2358 15.7142 17.746 15.8071 16.8811 16.8391L10.5954 24.3392C9.80154 25.2865 9.80154 26.7138 10.5954 27.6608L16.8811 35.1608C17.746 36.1928 19.2358 36.2858 20.2088 35.3685C21.1818 34.4512 21.2695 32.8712 20.4046 31.8392L17.6061 28.5002H46.3937L43.5953 31.8392C42.7304 32.8712 42.8181 34.4512 43.7911 35.3685C44.7641 36.2858 46.2539 36.1928 47.1188 35.1608L53.4045 27.6608L53.4378 27.6205C53.7684 27.2088 53.9755 26.6818 53.9978 26.1045C54.0007 26.0372 54.0007 25.9702 53.9982 25.9032C53.9765 25.2998 53.7533 24.7515 53.3979 24.3312L47.1188 16.8391C46.2539 15.8071 44.7641 15.7142 43.7911 16.6315C42.8181 17.5488 42.7304 19.129 43.5953 20.1608L46.3937 23.5002H17.6061L20.4046 20.1608Z" fill="#1D2D4E"/>
<path d="M34.4005 0L34.3986 0.00650209L58.3986 0.0078986C61.4922 0.0078986 64 2.5547 64 5.69628V46.3116C64 49.4532 61.4922 52 58.3986 52H29.5994L29.5974 51.9919L5.60136 51.9922C2.50781 51.9922 0 49.4454 0 46.3038V5.68838C0 2.54677 2.50781 0 5.60136 0H34.4005ZM58.3986 4.88365H34.4005V21.1244H29.5994V4.87576H5.60136C5.15939 4.87576 4.80116 5.23958 4.80116 5.68838V46.3038C4.80116 46.7527 5.15939 47.1164 5.60136 47.1164H29.5994V30.8759H34.4005V47.1242H58.3986C58.8407 47.1242 59.1988 46.7605 59.1988 46.3116V5.69628C59.1988 5.24748 58.8407 4.88365 58.3986 4.88365Z" fill="#1D2D4E"/>
</svg>
