<svg width="62" height="62" viewBox="0 0 62 62" fill="none" xmlns="http://www.w3.org/2000/svg">
<g clip-path="url(#clip0_605_85)">
<path d="M31 0C24.8688 0 18.8753 1.81812 13.7773 5.22444C8.67941 8.63077 4.70606 13.4723 2.35975 19.1368C0.0134319 24.8013 -0.600472 31.0344 0.59567 37.0478C1.79181 43.0612 4.74428 48.5849 9.0797 52.9203C13.4151 57.2557 18.9388 60.2082 24.9522 61.4043C30.9656 62.6005 37.1987 61.9866 42.8632 59.6403C48.5277 57.294 53.3692 53.3206 56.7756 48.2227C60.1819 43.1248 62 37.1312 62 31C61.9911 22.781 58.7222 14.9012 52.9105 9.08951C47.0988 3.27781 39.219 0.00888946 31 0ZM31 56.8333C25.8907 56.8333 20.8961 55.3182 16.6478 52.4796C12.3995 49.641 9.08839 45.6064 7.13313 40.886C5.17786 36.1656 4.66628 30.9713 5.66306 25.9602C6.65985 20.949 9.12023 16.3459 12.7331 12.7331C16.3459 9.12022 20.949 6.65983 25.9602 5.66305C30.9714 4.66626 36.1656 5.17785 40.886 7.13311C45.6064 9.08838 49.641 12.3995 52.4796 16.6478C55.3182 20.896 56.8333 25.8907 56.8333 31C56.8258 37.8491 54.1017 44.4156 49.2586 49.2586C44.4156 54.1017 37.8491 56.8258 31 56.8333Z" fill="#606D86"/>
<path d="M31 23.25H25.8333C25.1482 23.25 24.4911 23.5222 24.0066 24.0066C23.5222 24.4911 23.25 25.1482 23.25 25.8333C23.25 26.5185 23.5222 27.1756 24.0066 27.66C24.4911 28.1445 25.1482 28.4167 25.8333 28.4167H28.4167V46.5C28.4167 47.1851 28.6888 47.8422 29.1733 48.3267C29.6578 48.8112 30.3149 49.0833 31 49.0833C31.6851 49.0833 32.3422 48.8112 32.8267 48.3267C33.3112 47.8422 33.5833 47.1851 33.5833 46.5V25.8333C33.5833 25.1482 33.3112 24.4911 32.8267 24.0066C32.3422 23.5222 31.6851 23.25 31 23.25Z" fill="#606D86"/>
<path d="M31.0517 12.9166H31.0258C30.3384 12.92 29.6804 13.196 29.1961 13.6839C28.7118 14.1718 28.4408 14.8319 28.4425 15.5193C28.4442 16.2067 28.7185 16.8655 29.2052 17.351C29.6919 17.8364 30.3513 18.1091 31.0388 18.1091C31.7262 18.1091 32.3856 17.8364 32.8723 17.351C33.359 16.8655 33.6333 16.2067 33.635 15.5193C33.6367 14.8319 33.3657 14.1718 32.8814 13.6839C32.3971 13.196 31.7391 12.92 31.0517 12.9166Z" fill="#606D86"/>
</g>
<defs>
<clipPath id="clip0_605_85">
<rect width="62" height="62" fill="white"/>
</clipPath>
</defs>
</svg>
