<svg width="62" height="62" viewBox="0 0 62 62" fill="none" xmlns="http://www.w3.org/2000/svg">
<path d="M31 0C13.9054 0 0 13.9073 0 31.001C0 48.0947 13.9054 62 31 62C48.0937 62 62 48.0947 62 31.001C62 13.9073 48.0939 0 31 0ZM31 57.1101C16.6024 57.1101 4.88971 45.3976 4.88971 31.0008C4.88971 16.6024 16.6024 4.88971 31 4.88971C45.3976 4.88971 57.1103 16.6024 57.1103 31.0008C57.1103 45.3976 45.3976 57.1101 31 57.1101Z" fill="#606D86"/>
<path d="M26.0979 24.9254C26.0979 22.9641 28.9664 22.6292 31.4545 22.6292C33.7997 22.6292 37.004 23.7283 39.6834 25.1174L40.2084 19.7118C38.8685 18.9457 35.76 18.0366 32.6026 17.8466L33.3678 12.3451H28.2493L29.0155 17.8466C22.4147 18.4676 20.2617 22.2942 20.2617 25.4994C20.2617 33.5831 35.3282 31.8629 35.3282 36.8357C35.3282 38.7028 33.5598 39.3709 30.4497 39.3709C26.2411 39.3709 23.0828 37.8897 21.4577 36.3577L20.6437 42.4333C22.1758 43.3424 25.2832 44.1554 29.0155 44.3474L28.2493 49.6571H33.3678L32.6026 44.2986C40.3516 43.6285 41.7387 39.5141 41.7387 36.7887C41.7388 27.1745 26.0979 29.5649 26.0979 24.9254Z" fill="#606D86"/>
</svg>
